<svg width="117" height="111" viewBox="0 0 117 111" fill="none" xmlns="http://www.w3.org/2000/svg">
<path d="M116.169 84.612C115.221 87.2103 113.496 88.7402 110.6 88.7152C110.402 88.7152 110.136 89.013 110.013 89.2335C109.815 89.5927 109.761 90.0337 109.558 90.3883C108.745 91.8273 108.467 93.0003 109.797 94.5256C111.204 96.1419 110.781 98.7402 109.306 100.375C108.22 101.579 107.076 102.748 105.86 103.821C103.691 105.735 100.972 105.435 98.3287 103.062C97.0648 103.559 95.7668 104.041 94.5029 104.605C94.3006 104.696 94.1755 105.142 94.1573 105.433C93.9437 108.745 91.9 110.688 88.5788 110.7C87.4058 110.704 86.2351 110.709 85.0621 110.7C82.0774 110.672 79.9587 108.742 79.7791 105.764C79.7268 104.896 79.4745 104.426 78.6198 104.312C78.547 104.303 78.4766 104.262 78.4106 104.228C76.7898 103.341 75.41 102.891 73.6596 104.435C72.1388 105.776 69.5928 105.235 68.0174 103.805C66.8422 102.739 65.7055 101.623 64.6439 100.445C62.814 98.4151 62.8367 95.5486 64.7167 93.564C65.2918 92.9571 65.3805 92.5092 64.9531 91.825C64.6553 91.3499 64.3825 90.8134 64.2893 90.2701C64.0438 88.8539 63.2255 88.6379 61.9092 88.6561C56.2012 88.738 50.4908 88.697 44.7827 88.6879C43.2369 88.6857 42.2685 87.8787 42.1821 86.5807C42.0844 85.1326 43.0528 84.1483 44.6486 84.1415C48.5813 84.1256 52.514 84.1369 56.4444 84.1346C56.8149 84.1346 57.1832 84.1346 57.6969 84.1346C57.6969 82.6821 57.6901 81.334 57.6969 79.9883C57.7151 76.5261 59.5314 74.5916 62.9595 74.2847C63.3027 74.2529 63.6414 73.8846 63.9233 73.6119C64.0688 73.4709 64.0643 73.1868 64.1666 72.9867C64.9736 71.4 65.4623 70.0452 63.9574 68.3334C62.5799 66.7671 63.0913 64.1825 64.5507 62.5935C65.6237 61.425 66.7467 60.2953 67.9174 59.2268C69.9019 57.4173 72.7708 57.4537 74.8053 59.3314C75.3759 59.8588 75.776 59.9338 76.4625 59.5701C77.4559 59.0427 78.5334 58.6744 79.5541 58.2471C79.6587 57.4833 79.6655 56.7081 79.8837 55.9988C80.5157 53.937 81.9114 52.6004 84.0778 52.3867C85.7987 52.2162 87.5559 52.2275 89.2858 52.3344C91.9091 52.4981 93.7913 54.3598 93.9823 56.9877C94.055 57.9811 94.3733 58.513 95.3394 58.6699C95.5213 58.6994 95.7077 58.7745 95.8668 58.8699C97.3035 59.7224 98.5629 60.0702 100.006 58.6153C100.672 57.9447 102.014 57.947 103.2 57.5992V34.901H4.62604C4.60331 35.2669 4.56238 35.6284 4.56238 35.9898C4.56011 49.2973 4.56238 62.6049 4.55783 75.9124C4.55783 77.8855 4.97384 79.7382 6.11273 81.3818C7.35846 83.1799 9.03156 84.1551 11.273 84.1415C15.508 84.1142 19.743 84.1233 23.9758 84.1415C25.5352 84.1483 26.5468 85.2099 26.4104 86.617C26.3081 87.6786 25.533 88.6334 24.4486 88.6402C19.4225 88.6652 14.3714 88.9039 9.37936 88.4788C4.63513 88.0742 0.966122 83.78 0.225048 78.6948C0.0886539 77.7628 0.0113634 76.8148 0.0113634 75.876C-2.77511e-06 54.8554 0.00454647 33.8348 0 12.8165C0 8.59055 1.27074 4.87154 4.68968 2.24368C6.01725 1.223 7.754 0.731981 9.30434 0C39.0246 0 68.7471 0 98.4674 0C102.166 0.82973 104.844 2.95293 106.519 6.3446C107.599 8.53145 107.899 10.8683 107.899 13.2757C107.89 28.6928 107.904 44.1076 107.874 59.5246C107.874 60.6181 108.151 61.4114 108.949 62.2025C111.111 64.3416 111.113 67.2604 109.088 69.5132C108.888 69.736 108.695 69.9633 108.54 70.1406C109.022 71.3204 109.431 72.4593 109.963 73.5368C110.131 73.8778 110.611 74.2506 110.972 74.2779C112.261 74.3711 113.503 74.6416 114.378 75.5941C115.094 76.3738 115.58 77.3672 116.167 78.2652V84.6166L116.169 84.612ZM103.303 30.1385C103.303 28.786 103.305 27.5425 103.303 26.299C103.291 21.3866 103.38 16.4696 103.232 11.5617C103.1 7.19251 100.195 4.54874 95.8736 4.54874C75.1236 4.54874 54.3735 4.54874 33.6234 4.54874C26.1786 4.54874 18.7314 4.56465 11.2866 4.53965C9.04293 4.53055 7.3721 5.49668 6.12409 7.28799C5.03067 8.85879 4.57376 10.6319 4.57148 12.5255C4.56239 18.0813 4.56694 23.6371 4.57148 29.1929C4.57148 29.4861 4.59875 29.7794 4.61466 30.1385H103.305H103.303ZM70.7248 69.7064C70.4043 70.4316 70.1679 70.9385 69.9542 71.4546C69.2359 73.1913 68.4425 74.903 67.8356 76.6762C67.2764 78.3084 66.6671 78.8721 64.8917 78.8971C62.3025 78.9312 62.2934 78.9312 62.3071 81.4681C62.323 84.5347 61.9661 84.0983 64.9486 84.1278C66.7399 84.146 67.2877 84.6598 67.856 86.3533C68.4289 88.0605 69.1018 89.7518 69.9065 91.359C70.8431 93.2276 70.834 93.8777 69.3655 95.3485C67.3991 97.3194 67.4741 96.7988 69.3882 98.7425C71.325 100.709 71.3363 100.697 73.3459 98.7629C74.5007 97.6513 75.2804 97.6149 76.7103 98.3083C78.3675 99.1107 80.0519 99.8904 81.7932 100.47C83.9119 101.175 84.3324 101.593 84.3393 103.839C84.3483 106.415 84.1005 106.133 86.6511 106.14C88.5758 106.144 89.5533 105.198 89.5836 103.3C89.6086 101.709 90.1269 101.148 91.6363 100.618C93.4072 99.995 95.178 99.3267 96.8557 98.4901C98.7379 97.5536 99.3153 97.5536 100.843 99.0562C102.814 100.993 102.273 100.954 104.244 99.0107C106.21 97.0716 106.199 97.0603 104.246 95.0439C103.141 93.905 103.114 93.123 103.814 91.6818C104.616 90.0269 105.383 88.3356 105.969 86.5943C106.662 84.5302 107.065 84.1256 109.254 84.1233C111.886 84.1233 111.604 84.3165 111.609 81.7296C111.612 79.8913 110.685 78.9449 108.827 78.8903C107.263 78.8448 106.644 78.2743 106.128 76.8148C105.487 75.0099 104.792 73.2118 103.946 71.4932C103.078 69.7269 103.075 69.0586 104.444 67.6764C105.626 66.4822 105.626 65.2949 104.444 64.1143C103.183 62.8534 101.915 62.8413 100.641 64.0779C99.3721 65.31 98.6333 65.31 97.0012 64.5121C95.3167 63.6892 93.5686 62.964 91.7886 62.3707C90.0041 61.7751 89.4904 61.2273 89.4677 59.2837C89.4381 56.5103 89.8177 56.8899 87.0671 56.8718C84.2688 56.8536 84.2688 56.8672 84.2233 59.6497C84.196 61.225 83.6391 61.8251 82.166 62.3525C80.3293 63.0118 78.5107 63.7506 76.7557 64.603C75.2281 65.3441 74.4348 65.3305 73.2027 64.1347C71.9236 62.8936 70.6491 62.9072 69.3791 64.1757C67.6287 65.9238 67.6537 65.901 69.3927 67.7492C69.9338 68.3243 70.2997 69.0631 70.7248 69.6951V69.7064Z" fill="#2563EB"/>
<path d="M51.1796 59.4586C49.3701 57.4218 47.6379 55.4805 45.9125 53.5277C44.8122 52.2797 44.7645 50.9476 45.767 50.0156C46.7968 49.0586 48.1857 49.2359 49.3246 50.5043C51.2955 52.698 53.2596 54.8962 55.21 57.1104C56.583 58.6698 56.5944 60.2201 55.2305 61.7773C53.2368 64.0528 51.225 66.3101 49.1996 68.5561C48.1812 69.6859 46.7718 69.8109 45.7875 68.9198C44.7918 68.0173 44.785 66.6579 45.8125 65.4895C47.5583 63.5027 49.3269 61.5363 51.1773 59.4586H51.1796Z" fill="#2563EB"/>
<path d="M18.0109 59.4587C19.9045 61.5842 21.6958 63.5801 23.4689 65.5896C24.2213 66.4421 24.3896 67.4173 23.7963 68.4129C23.2234 69.3722 22.3005 69.6996 21.2548 69.3882C20.7797 69.2472 20.3137 68.8949 19.9727 68.5221C17.9381 66.2852 15.9263 64.0279 13.935 61.7524C12.6028 60.2316 12.5983 58.679 13.9168 57.1786C15.9104 54.9054 17.9268 52.6526 19.9499 50.4044C20.9956 49.2428 22.3323 49.0814 23.3462 49.9543C24.3896 50.8522 24.3987 52.2594 23.3371 53.4642C21.5935 55.4442 19.8317 57.4105 18.0109 59.4587Z" fill="#2563EB"/>
<path d="M39.1109 50.3475C38.5858 52.5662 38.0084 55.0281 37.4242 57.4877C36.5149 61.3067 35.601 65.1235 34.6895 68.9403C34.6463 69.1244 34.5895 69.304 34.5303 69.4836C34.1212 70.7566 33.0346 71.4431 31.8479 71.1817C30.6045 70.9066 29.8316 69.7609 30.1339 68.4242C30.9864 64.6689 31.8957 60.9294 32.7845 57.1831C33.3687 54.7235 33.962 52.2638 34.5372 49.8019C34.7895 48.7176 35.351 47.931 36.4944 47.706C37.8993 47.4287 39.1814 48.6062 39.1132 50.3475H39.1109Z" fill="#2563EB"/>
<path d="M34.2895 84.1369C35.6035 84.1119 36.6173 85.0803 36.6309 86.3715C36.6423 87.6536 35.6216 88.6834 34.3418 88.6811C33.1347 88.6789 32.0868 87.6786 32.0367 86.4784C31.9822 85.2304 33.012 84.162 34.2918 84.1369H34.2895Z" fill="#2563EB"/>
<path d="M78.0515 25.1555C74.6507 25.1555 71.2477 25.2078 67.8469 25.1396C64.6189 25.0759 61.8433 22.9754 60.8067 19.9725C59.7724 16.9718 60.6544 13.7461 63.0913 11.6479C64.5575 10.3863 66.2875 9.79979 68.2015 9.79751C74.853 9.78387 81.5068 9.75887 88.1582 9.80206C92.6479 9.83161 96.0009 13.1733 95.9964 17.4879C95.9918 21.807 92.6274 25.1146 88.1423 25.1577C84.778 25.1896 81.4136 25.1646 78.0515 25.1646V25.1532V25.1555ZM78.2833 20.5976C81.4204 20.5976 84.5575 20.6067 87.6923 20.5885C88.2151 20.5863 88.7561 20.5431 89.2585 20.4044C90.6133 20.0271 91.5067 18.7131 91.4294 17.3151C91.3544 15.9034 90.336 14.7236 88.9357 14.4804C88.4561 14.3963 87.9582 14.3872 87.4695 14.3872C81.4977 14.3803 75.5282 14.3803 69.5564 14.3872C68.8767 14.3872 68.1902 14.3713 67.5218 14.4736C66.2897 14.66 65.4782 15.4079 65.1122 16.5922C64.4689 18.6699 65.9488 20.5567 68.3038 20.5863C71.6296 20.6272 74.9553 20.5976 78.2811 20.5976H78.2833Z" fill="#2563EB"/>
<path d="M48.7927 17.4879C48.7882 21.732 45.3056 25.1896 41.066 25.1578C36.8833 25.126 33.4484 21.6593 33.4507 17.4743C33.453 13.2938 36.8901 9.83394 41.0774 9.79984C45.301 9.76347 48.795 13.2461 48.7927 17.4879ZM44.2304 17.472C44.2258 15.7784 42.8005 14.385 41.0933 14.4031C39.4134 14.4213 38.079 15.758 38.0608 17.4379C38.0426 19.1633 39.4134 20.5727 41.116 20.5818C42.7982 20.5886 44.2349 19.1542 44.2304 17.472Z" fill="#2563EB"/>
<path d="M28.8905 17.4403C28.911 21.7071 25.4739 25.1647 21.2229 25.1579C17.0197 25.1511 13.6053 21.7344 13.5894 17.5221C13.5735 13.2598 17.022 9.78401 21.2547 9.79765C25.4557 9.81129 28.8724 13.2302 28.8928 17.4403H28.8905ZM24.31 17.4857C24.3122 15.7649 22.9278 14.385 21.2093 14.3987C19.5407 14.4123 18.1813 15.7603 18.1541 17.4221C18.1268 19.1225 19.518 20.5614 21.2047 20.5819C22.8892 20.6023 24.3077 19.1884 24.31 17.4834V17.4857Z" fill="#2563EB"/>
<path d="M72.98 81.4976C72.9754 73.7732 79.2314 67.5286 86.9626 67.5423C94.6734 67.5559 100.961 73.8528 100.934 81.5386C100.907 89.1607 94.603 95.453 86.9808 95.4712C79.2905 95.4894 72.9845 89.1948 72.98 81.4976ZM77.5628 81.4772C77.5605 86.6533 81.7205 90.852 86.899 90.8929C92.0638 90.9361 96.3875 86.6101 96.3465 81.4454C96.3056 76.2647 92.1092 72.1069 86.9263 72.1137C81.7342 72.1205 77.5651 76.2874 77.5628 81.4749V81.4772Z" fill="#2563EB"/>
</svg>
