<svg width="119" height="118" viewBox="0 0 119 118" fill="none" xmlns="http://www.w3.org/2000/svg">
<path d="M31.4053 0.00953284H86.6141C90.539 1.65724 91.3736 2.93773 91.3736 7.31809C91.3736 13.3414 91.3736 19.3623 91.3736 25.3856V26.6637C94.4592 26.6637 97.3516 26.6613 100.244 26.6637C106.413 26.6708 110.404 30.6744 110.412 36.8647C110.412 38.5147 110.412 40.1624 110.412 41.8912H118.028V76.1592H110.507C110.455 76.4071 110.424 76.4834 110.424 76.5574C110.419 80.6826 110.419 84.8054 110.412 88.9306C110.4 94.9587 106.365 98.9957 100.337 99.0028C93.3575 99.01 86.378 99.0028 79.3985 99.0028C78.9765 99.0028 78.5544 99.0028 78.1348 99.0028V106.567C86.6332 105.925 90.3435 112.869 89.3253 117.953C69.0879 117.953 48.8481 117.953 28.6059 117.953C28.346 115.132 28.7991 112.576 30.5231 110.353C32.9028 107.287 36.1815 106.361 39.8871 106.619V99.0005C39.3696 99.0005 38.9356 99.0005 38.504 99.0005C31.5246 99.0005 24.5451 99.0076 17.5656 98.9981C11.6973 98.9885 7.62453 94.9134 7.61023 89.0475C7.60069 84.4859 7.58877 79.9267 7.62453 75.3651C7.63169 74.5019 7.42423 73.9749 6.64926 73.4456C-2.24022 67.3746 -2.20922 54.4195 6.69934 48.3628C7.42423 47.8692 7.63884 47.3708 7.62692 46.5386C7.57923 43.1288 7.58638 39.7189 7.61261 36.3067C7.65315 30.8175 11.7736 26.7042 17.2675 26.6589C20.0026 26.6375 22.74 26.6542 25.4774 26.6542C25.8518 26.6542 26.2285 26.6542 26.6458 26.6542C26.6458 19.8058 26.6435 13.1435 26.6506 6.48351C26.6506 5.85161 26.6578 5.20779 26.7865 4.59259C27.3135 2.06261 29.09 0.751123 31.4053 0V0.00953284ZM38.0391 53.4013H49.5205V72.2795H53.3429V45.7589H64.7385V72.2652H68.5609V49.5837H79.9994V58.9668H91.3974V41.8936H106.592C106.592 39.7332 106.668 37.7493 106.573 35.7749C106.439 32.9445 104.074 30.5814 101.243 30.5028C98.0741 30.4121 94.8979 30.4622 91.7265 30.4956C91.4189 30.498 90.973 30.746 90.8323 31.0083C89.5757 33.357 87.6347 34.3538 84.995 34.3275C79.4844 34.2727 73.9714 34.2822 68.4584 34.3418C67.6882 34.349 66.825 34.6256 66.1716 35.0405C63.129 36.972 60.1459 39.0036 57.1343 40.9875C55.5152 42.0534 53.7984 42.2513 52.072 41.3189C50.3122 40.3699 49.4776 38.8295 49.4895 36.8265C49.4943 36.011 49.4895 35.1955 49.4895 34.3085C48.8815 34.3085 48.4499 34.3085 48.0207 34.3085C42.9059 34.3085 37.7887 34.2942 32.6739 34.3132C30.2155 34.3228 28.4461 33.2521 27.242 31.1227C27.0631 30.8056 26.5457 30.5051 26.1809 30.5004C23.1287 30.4527 20.0741 30.4408 17.0219 30.4861C14.1891 30.5266 11.6687 32.6155 11.5089 35.4125C11.3062 38.963 11.4588 42.5351 11.4588 46.1738C15.9107 45.1366 20.0216 45.8209 23.7606 48.3604C27.5019 50.8999 29.5979 54.5077 30.3371 58.9715H38.0367V53.4037L38.0391 53.4013ZM11.4159 83.8278C11.4159 85.4683 11.4159 87.0445 11.4159 88.6182C11.4159 92.9867 13.6264 95.1972 17.9924 95.1972C45.3428 95.1972 72.6957 95.1972 100.046 95.1972C100.363 95.1972 100.68 95.2019 100.998 95.1924C103.828 95.1018 106.263 93.0535 106.52 90.2541C106.713 88.1438 106.558 86.0024 106.558 83.8254H11.4159V83.8278ZM53.3 30.5004C53.3 32.5868 53.2571 34.4897 53.3286 36.3878C53.3477 36.91 53.5742 37.6134 53.9533 37.8709C54.2419 38.0665 55.0001 37.8113 55.4103 37.5443C58.7033 35.4101 61.9486 33.2044 65.244 31.0774C65.7686 30.7388 66.4768 30.529 67.1016 30.5242C73.051 30.4837 78.9979 30.5028 84.9473 30.498C86.9861 30.498 87.5655 29.9186 87.5679 27.8917C87.5703 20.7525 87.5679 13.6156 87.5679 6.47635C87.5679 4.45904 86.9599 3.84623 84.9473 3.84623C67.6572 3.84623 50.3646 3.84623 33.0745 3.84623C31.062 3.84623 30.4563 4.45666 30.4563 6.47635C30.4563 13.6156 30.4563 20.7525 30.4563 27.8917C30.4563 29.9209 31.0334 30.498 33.0745 30.498C39.341 30.5004 45.6075 30.498 51.8717 30.498C52.2985 30.498 52.7277 30.498 53.3 30.498V30.5004ZM30.3371 62.8988C29.5931 67.3817 27.4852 70.98 23.7391 73.5171C20.0026 76.0471 15.894 76.7147 11.4946 75.7037V79.8838H106.511V76.1067H91.3426V62.9275H80.0233V72.3868H83.705V76.09H34.3478V72.2867H38.0033V62.8965H30.3395L30.3371 62.8988ZM95.2675 45.7518V72.2581H114.16V45.7518H95.2675ZM43.8668 99.0553V106.526H74.1788V99.0553H43.8668ZM26.6435 60.841C26.6053 54.5697 21.4285 49.4716 15.1382 49.5098C8.86687 49.5479 3.76877 54.7247 3.80692 61.0151C3.84269 67.2816 9.02901 72.3892 15.3146 72.3487C21.5859 72.3081 26.684 67.1314 26.6458 60.841H26.6435ZM85.2359 114.178C85.1285 113.882 85.0809 113.653 84.9712 113.463C83.7813 111.376 81.9643 110.422 79.5798 110.425C65.8664 110.434 52.153 110.429 38.4397 110.429C38.1631 110.429 37.8841 110.425 37.6075 110.446C35.3684 110.63 33.3583 112.204 32.8861 114.178H85.2382H85.2359ZM57.1558 72.2915H60.8446V49.5908H57.1558V72.2915ZM72.4214 53.3679V72.2557H76.0841V53.3679H72.4214ZM41.9544 57.1808V72.2628H45.6838C45.6838 67.3436 45.6838 62.5125 45.6815 57.6839C45.6815 57.5337 45.6457 57.3858 45.6195 57.1831H41.9544V57.1808Z" fill="#2563EB"/>
<path d="M53.2881 89.4815C53.2905 90.5116 52.4273 91.3772 51.3996 91.3796C50.3695 91.382 49.5063 90.5211 49.5039 89.4886C49.5015 88.4538 50.3552 87.593 51.3924 87.5906C52.4249 87.5882 53.2881 88.4466 53.2905 89.4791L53.2881 89.4815Z" fill="#2563EB"/>
<path d="M58.9609 91.3819C57.9284 91.3533 57.089 90.4686 57.1177 89.4385C57.1439 88.4036 58.0262 87.5667 59.0587 87.5929C60.0911 87.6191 60.9329 88.5038 60.9043 89.5339C60.878 90.564 59.9886 91.4081 58.9633 91.3795L58.9609 91.3819Z" fill="#2563EB"/>
<path d="M68.5179 89.4815C68.5203 90.5116 67.6571 91.3772 66.6293 91.3796C65.5992 91.382 64.736 90.5211 64.7336 89.4886C64.7313 88.4538 65.5849 87.593 66.6222 87.5906C67.6547 87.5882 68.5179 88.4466 68.5203 89.4791L68.5179 89.4815Z" fill="#2563EB"/>
<path d="M34.3383 21.022H37.9652C38.2966 22.6387 39.4555 23.0131 40.9625 22.8987C41.8686 22.8295 42.7867 22.9082 43.6976 22.8748C44.8588 22.8319 45.629 22.107 45.6743 21.0745C45.7196 20.0158 44.916 19.1478 43.7357 19.0953C42.5482 19.0429 41.356 19.0906 40.1661 19.0763C36.7753 19.0286 34.2644 16.5987 34.2644 13.3796C34.2644 10.1844 36.8158 7.70688 40.1661 7.66158C41.3965 7.64488 42.6269 7.6258 43.8549 7.66872C46.981 7.77841 49.2964 10.0747 49.449 13.2723H45.753C45.4287 11.7367 44.2985 11.36 42.832 11.4553C41.9235 11.515 41.0078 11.4387 40.0969 11.4768C38.8808 11.5293 38.0796 12.3114 38.0772 13.3796C38.0772 14.4622 38.8689 15.2277 40.0922 15.2634C41.282 15.2968 42.4719 15.2563 43.6618 15.2777C46.9453 15.3397 49.4681 17.8029 49.4872 20.9529C49.5086 24.172 46.9953 26.6423 43.626 26.69C42.2788 26.7091 40.9267 26.7306 39.5819 26.6686C36.6418 26.5327 34.2978 24.0289 34.3383 21.0244V21.022Z" fill="#2563EB"/>
<path d="M83.7551 17.1947C83.7551 18.5014 83.7861 19.8105 83.7479 21.1172C83.6621 24.1909 81.2775 26.5873 78.2134 26.6779C76.828 26.7184 75.4402 26.7184 74.0548 26.6779C70.9955 26.5849 68.5991 24.1765 68.5418 21.1005C68.4941 18.5252 68.5037 15.95 68.5394 13.3747C68.5824 10.2319 70.9335 7.80921 74.0739 7.67329C75.4569 7.61368 76.8495 7.6113 78.2325 7.67329C81.3705 7.81636 83.6931 10.239 83.7527 13.3914C83.7765 14.6575 83.7574 15.9261 83.7527 17.1947H83.7551ZM79.9494 17.1518C79.9494 15.9237 79.978 14.6933 79.9398 13.4653C79.9041 12.273 79.1959 11.5315 78.0107 11.4814C76.7851 11.4265 75.5523 11.4313 74.3243 11.479C73.0796 11.5267 72.3594 12.273 72.3451 13.5368C72.3165 15.9547 72.3189 18.375 72.3451 20.7929C72.3594 22.1497 73.0533 22.8436 74.3958 22.8794C75.5452 22.9104 76.6969 22.908 77.8438 22.8794C79.2483 22.8484 79.9207 22.1545 79.947 20.7214C79.9684 19.5315 79.9517 18.3416 79.947 17.1541L79.9494 17.1518Z" fill="#2563EB"/>
<path d="M64.6693 7.66861V11.4624C63.2529 11.4624 61.877 11.4624 60.5035 11.4624C57.3559 11.4624 56.9315 11.9226 57.1723 15.2323H64.6454V19.0308H57.1127C57.1127 19.7891 57.0769 20.4115 57.1199 21.0267C57.2009 22.1927 57.9187 22.8556 59.1658 22.8747C60.978 22.9033 62.7903 22.8819 64.6621 22.8819V26.5755C62.361 26.5755 60.0504 26.802 57.8066 26.5159C55.1908 26.182 53.3595 23.7808 53.3142 21.1268C53.2689 18.511 53.2665 15.8904 53.3142 13.2746C53.3666 10.251 55.6748 7.8403 58.7151 7.68769C60.649 7.58992 62.5923 7.66861 64.6716 7.66861H64.6693Z" fill="#2563EB"/>
<path d="M99.0352 53.2248V49.5789H110.35V53.2248H99.0352Z" fill="#2563EB"/>
<path d="M99.0447 60.8482V57.1855H110.316V60.8482H99.0447Z" fill="#2563EB"/>
<path d="M99.0898 64.7634H110.319V68.4666H99.0898V64.7634Z" fill="#2563EB"/>
<path d="M15.2097 68.5431C11.0177 68.5383 7.59355 65.0879 7.61263 60.8887C7.6317 56.6944 11.0893 53.2893 15.2955 53.3203C19.4398 53.3513 22.8259 56.7635 22.8354 60.9126C22.8425 65.1141 19.4112 68.5478 15.2121 68.5431H15.2097ZM15.162 64.735C17.227 64.766 18.9796 63.0801 19.0249 61.0199C19.0702 58.9549 17.3987 57.188 15.3385 57.1284C13.2186 57.0664 11.4326 58.7856 11.4159 60.9007C11.4016 62.9681 13.0946 64.704 15.1596 64.735H15.162Z" fill="#2563EB"/>
</svg>
