<svg width="113" height="114" viewBox="0 0 113 114" fill="none" xmlns="http://www.w3.org/2000/svg">
<path d="M78.5709 0C80.2738 0.54847 82.0254 0.99742 83.4121 2.4084C82.6225 3.30188 81.8286 4.20199 80.9616 5.17951C79.3892 3.81275 77.5425 3.74198 75.6406 3.74641C62.5459 3.76852 49.4533 3.75525 36.3586 3.75968C33.2337 3.75968 30.9823 5.33432 30.3476 8.07003C30.1198 9.05197 30.1773 10.1003 30.0976 11.2348H60.175V15.021H30.2525V25.0837C31.2941 24.9421 32.3402 24.8492 33.3575 24.6237C33.5986 24.5706 33.8927 24.0752 33.9038 23.7766C33.9569 22.1688 33.9281 20.5588 33.9281 18.8868H37.6635V24.5064C38.9019 24.732 40.021 24.9067 41.129 25.1412C51.1297 27.2621 58.9145 35.8673 60.0313 46.0582C60.1176 46.8478 60.3807 47.122 61.188 47.0888C62.7228 47.0269 64.2598 47.0711 65.8721 47.0711V50.8419C64.3394 50.8419 62.809 50.8949 61.2875 50.822C60.3741 50.7777 60.1087 51.1117 60.0247 51.9897C59.0737 61.8931 51.0545 70.7903 41.2882 72.8094C40.1448 73.0461 38.986 73.2097 37.7254 73.4265V78.9952H33.9303C33.9303 77.3741 33.9126 75.7663 33.9391 74.1607C33.948 73.5724 33.7733 73.3269 33.1452 73.265C21.7644 72.1084 12.5731 63.0011 11.4674 51.3461C11.4563 51.2377 11.4209 51.1338 11.3656 50.8883H5.75708V47.0866H11.2219C11.6819 45.1227 11.9871 43.2318 12.5731 41.436C14.7604 34.7283 19.1061 29.8673 25.4578 26.8175C26.1588 26.4814 26.4088 26.1054 26.4043 25.3314C26.3712 20.2182 26.3866 15.1073 26.3866 9.9941C26.3866 5.92259 28.0696 2.82639 31.7563 0.970881C32.6542 0.517508 33.6804 0.316255 34.6469 0C49.2875 0 63.9303 0 78.5709 0ZM15.1784 50.8507C15.8197 56.5013 18.1839 61.0726 22.5871 64.9451C22.5982 59.2348 24.9602 55.1036 29.6509 52.3435C24.9956 47.854 25.9067 41.8275 29.0339 38.603C32.3734 35.1574 37.9443 34.777 41.6686 37.8157C43.6723 39.4501 44.8356 41.5533 45.1275 44.1209C45.4991 47.3896 44.265 50.0678 41.9052 52.3546C46.7243 55.1367 48.969 59.3255 49.0265 64.9274C53.3767 61.066 55.8161 56.5322 56.3778 50.833H52.8304V47.049H56.2871C55.7608 36.6767 46.0785 28.5669 37.6635 28.5625V31.9241H33.8595V28.4829C24.1308 28.9937 15.7423 37.7118 15.3 47.1065H18.7545V50.8507H15.1806H15.1784ZM37.7165 69.4788C39.5433 69.5319 43.6126 68.4548 44.8555 67.5614C45.0656 67.411 45.2138 67.0306 45.2116 66.7564C45.2005 65.4383 45.2027 64.1091 45.0612 62.8021C44.6343 58.8721 41.5691 55.61 37.6369 54.8072C33.7357 54.0111 29.5735 55.9727 27.6118 59.425C26.2451 61.8312 26.3756 64.432 26.4088 67.035C26.4088 67.2141 26.5591 67.4773 26.7117 67.5525C28.9543 68.6605 31.3007 69.3903 33.9458 69.5385V66.0287H37.7187V69.4766L37.7165 69.4788ZM35.7792 50.822C38.8776 50.8308 41.4121 48.3406 41.4519 45.2488C41.4917 42.1769 38.8356 39.5164 35.7615 39.5474C32.6742 39.5783 30.175 42.115 30.1795 45.2112C30.1839 48.3339 32.6564 50.8109 35.7792 50.822Z" fill="#2563EB"/>
<path d="M112.784 45.691C109.936 49.0858 107.142 52.527 104.227 55.8621C97.9864 63.0077 91.6746 70.0935 85.4202 77.2281C85.0376 77.6638 84.7479 78.283 84.6573 78.8558C83.5559 85.7603 78.3852 90.3007 71.3392 90.409C67.2212 90.4732 63.1011 90.4201 58.9809 90.4223C57.9216 90.4223 56.9706 90.21 56.6189 89.0423C56.2651 87.8613 56.975 87.1824 57.8707 86.625C59.5581 85.5768 60.2769 84.0198 60.268 82.0758C60.2548 79.6497 60.1221 77.2015 60.9956 74.8772C62.9109 69.7795 66.5909 66.8403 71.9739 66.0132C72.383 65.9513 72.8452 65.8119 73.146 65.551C76.4744 62.6538 79.7763 59.7279 83.0096 56.875V37.7559H86.641V53.6085C87.2183 53.1263 87.581 52.841 87.926 52.5381C92.7008 48.3339 97.5994 44.2579 102.202 39.8724C105.444 36.785 110.557 36.7917 112.784 41.7146V45.6866V45.691ZM82.8858 74.5963C83.0627 74.3022 83.1512 74.0921 83.2949 73.9284C91.637 64.4651 99.9835 55.0084 108.323 45.5429C108.589 45.2421 108.841 44.9103 109.011 44.5521C109.564 43.391 108.962 41.9977 107.744 41.5908C106.656 41.2281 105.844 41.7456 105.061 42.4378C95.7461 50.6693 86.4221 58.8897 77.1025 67.1145C76.8327 67.3534 76.5739 67.6077 76.2621 67.8996C76.5518 68.2071 76.7951 68.4769 77.0494 68.7334C78.9359 70.6309 80.8268 72.5263 82.8858 74.5941V74.5963ZM62.9728 86.5587C66.226 86.5587 69.2647 86.698 72.2879 86.5255C76.773 86.2712 80.2076 82.9936 80.829 78.6015C80.8755 78.2697 80.7494 77.7942 80.5216 77.562C78.08 75.0696 75.6119 72.6059 73.1239 70.1599C72.905 69.9431 72.4781 69.7817 72.1796 69.8237C69.7579 70.1665 67.7586 71.29 66.1906 73.1831C64.5607 75.1536 64.0277 77.4603 64.0277 79.9505C64.0277 82.1466 64.2356 84.3737 62.9728 86.5565V86.5587Z" fill="#2563EB"/>
<path d="M86.6452 7.52148C93.2622 7.52148 99.8815 7.52148 106.499 7.52148C108.668 7.52148 109.25 8.10313 109.25 10.266C109.25 17.2524 109.25 24.2366 109.25 31.2229C109.25 33.3106 108.65 33.9166 106.558 33.9166C93.2866 33.921 80.0149 33.921 66.7411 33.9166C64.66 33.9166 64.0297 33.2863 64.0275 31.2296C64.0252 24.2078 64.023 17.1861 64.0275 10.1621C64.0275 8.16726 64.6777 7.5237 66.6791 7.5237C73.3338 7.51927 79.9884 7.5237 86.643 7.5237L86.6452 7.52148ZM67.8579 30.0552H105.421V11.3497H67.8579V30.0552Z" fill="#2563EB"/>
<path d="M30.1397 75.4544V84.7584C30.6262 84.7584 31.0177 84.7584 31.4091 84.7584C35.1599 84.7584 38.913 84.754 42.6638 84.7584C44.5879 84.7607 45.2226 85.4042 45.2248 87.3615C45.2292 91.9217 45.2314 96.482 45.2248 101.042C45.2226 102.927 44.5901 103.57 42.7169 103.572C29.3302 103.577 15.9414 103.577 2.55473 103.572C0.612971 103.572 0.0047822 102.946 0.0047822 100.978C0.000359057 96.4532 0.000359057 91.9306 0.0047822 87.4057C0.0047822 85.3755 0.617383 84.7562 2.62549 84.7562C10.0918 84.754 17.558 84.7562 25.0243 84.7562H26.3424V75.4521H30.1441L30.1397 75.4544ZM3.78878 99.7507H41.3988V88.611H3.78878V99.7507Z" fill="#2563EB"/>
<path d="M27.6472 108.312C28.753 107.666 29.7593 107.078 30.8407 106.445C31.2079 106.865 31.5307 107.308 31.9244 107.675C33.112 108.778 34.5584 109.247 36.1573 109.25C49.7652 109.254 63.373 109.265 76.983 109.243C80.3313 109.238 82.6159 107.111 82.8348 103.763C82.9587 101.867 82.8569 99.9565 82.8569 97.9594H49.0641V94.202H82.8702V86.718H86.5724C86.6056 87.0321 86.6608 87.3129 86.6608 87.5938C86.6653 92.7423 86.6874 97.8931 86.6564 103.042C86.6343 107.042 85.042 110.22 81.3376 111.963C79.9885 112.598 78.3785 112.958 76.8857 112.967C63.2403 113.042 49.5949 113.025 35.9517 113C32.3778 112.994 29.6398 111.406 27.6494 108.312H27.6472Z" fill="#2563EB"/>
<path d="M11.3258 26.3642C8.45739 26.3642 5.58678 26.3686 2.71837 26.3642C0.601897 26.3598 0.00476528 25.7715 0.00255371 23.7015C0.000342132 19.1766 -0.00186944 14.6517 0.00255371 10.129C0.00255371 8.18286 0.648334 7.52823 2.57461 7.52602C8.38663 7.5216 14.1986 7.5216 20.0107 7.52602C21.959 7.52602 22.5982 8.15411 22.6026 10.0959C22.6137 14.6937 22.6137 19.2916 22.6026 23.8895C22.5982 25.7295 21.979 26.3509 20.1566 26.362C17.213 26.3797 14.2716 26.3664 11.328 26.3664L11.3258 26.3642ZM18.7677 11.3786H3.81973V22.4917H18.7677V11.3786Z" fill="#2563EB"/>
<path d="M54.7346 101.765H58.3152V105.419H54.7346V101.765Z" fill="#2563EB"/>
<path d="M101.673 26.2822H71.6333V22.6641H101.673V26.2822Z" fill="#2563EB"/>
<path d="M101.673 15.1404V18.7563H82.9609V15.1404H101.673Z" fill="#2563EB"/>
<path d="M79.0399 15.1382V18.7386H71.6333V15.1382H79.0399Z" fill="#2563EB"/>
<path d="M20.7825 95.9645V92.353H37.6015V95.9645H20.7825Z" fill="#2563EB"/>
<path d="M7.59937 92.322H16.8968V95.9778H7.59937V92.322Z" fill="#2563EB"/>
<path d="M14.9881 18.7652H7.61255V15.1272H14.9881V18.7652Z" fill="#2563EB"/>
</svg>
